<?xml version="1.0" standalone="no"?>
<!DOCTYPE svg PUBLIC "-//W3C//DTD SVG 1.0//EN" "http://www.w3.org/TR/2001/REC-SVG-20010904/DTD/svg10.dtd">
<svg xmlns="http://www.w3.org/2000/svg" xmlns:xlink="http://www.w3.org/1999/xlink" id="body_1" width="200" height="35">

<g transform="matrix(0.20000002 0 0 0.20114943 0 0)">
	<g>
        <path d="M824.5 -0.5C 840.5 -0.5 856.5 -0.5 872.5 -0.5C 872.5 57.5 872.5 115.5 872.5 173.5C 856.5 173.5 840.5 173.5 824.5 173.5C 824.5 115.5 824.5 57.5 824.5 -0.5z" stroke="none" fill="#FF851B" fill-rule="nonzero" fill-opacity="0.9764706" />
	</g>
	<g>
        <path d="M882.5 -0.5C 898.5 -0.5 914.5 -0.5 930.5 -0.5C 930.5 57.5 930.5 115.5 930.5 173.5C 914.5 173.5 898.5 173.5 882.5 173.5C 882.5 115.5 882.5 57.5 882.5 -0.5z" stroke="none" fill="#FE8519" fill-rule="nonzero" fill-opacity="0.7294118" />
	</g>
	<g>
        <path d="M940.5 -0.5C 956.5 -0.5 972.5 -0.5 988.5 -0.5C 988.5 57.5 988.5 115.5 988.5 173.5C 972.5 173.5 956.5 173.5 940.5 173.5C 940.5 115.5 940.5 57.5 940.5 -0.5z" stroke="none" fill="#FF8518" fill-rule="nonzero" fill-opacity="0.5019608" />
	</g>
	<g>
        <path d="M265.5 23.5C 280.497 22.3327 294.83 24.8327 308.5 31C 312.619 33.2905 316.286 36.1238 319.5 39.5C 318.126 40.7113 316.626 41.7113 315 42.5C 294.392 27.9741 272.558 25.8074 249.5 36C 233.931 49.2269 230.765 65.0602 240 83.5C 245.41 91.4621 252.91 96.2954 262.5 98C 268.833 98.3333 275.167 98.6667 281.5 99C 287.112 102.231 288.945 107.064 287 113.5C 285.272 116.953 282.438 118.786 278.5 119C 268.706 120.397 259.373 119.063 250.5 115C 253.824 111.121 257.824 110.454 262.5 113C 267.5 113.667 272.5 113.667 277.5 113C 281.954 111.414 282.621 108.747 279.5 105C 240.815 105.99 224.648 87.4896 231 49.5C 237.785 34.5447 249.285 25.878 265.5 23.5z" stroke="none" fill="#FF861A" fill-rule="nonzero" fill-opacity="0.8745098" />
	</g>
	<g>
        <path d="M593.5 23.5C 616.573 21.627 635.74 29.2936 651 46.5C 654.878 50.8723 654.045 53.3723 648.5 54C 630.326 31.0367 607.326 24.3701 579.5 34C 551.035 48.7685 540.202 71.9351 547 103.5C 560.531 136.184 584.697 148.684 619.5 141C 622.447 140.888 623.78 139.388 623.5 136.5C 605.361 141.935 588.027 140.101 571.5 131C 548.856 112.592 543.022 89.7587 554 62.5C 568.817 37.8839 590.317 29.0506 618.5 36C 629.328 39.8327 638.161 46.3327 645 55.5C 644.914 57.9434 643.581 59.6101 641 60.5C 622.355 37.8381 600.189 33.6715 574.5 48C 554.549 64.8476 549.715 85.3476 560 109.5C 575.861 132.008 596.861 138.675 623 129.5C 623.483 128.552 623.649 127.552 623.5 126.5C 607.653 131.468 592.32 130.302 577.5 123C 560.394 109.679 554.894 92.5123 561 71.5C 574.836 44.7757 595.669 37.2757 623.5 49C 629.309 52.3091 633.976 56.8091 637.5 62.5C 635.936 64.603 633.936 65.4363 631.5 65C 617.069 48.1488 600.069 45.1488 580.5 56C 563.313 70.9354 560.147 88.4354 571 108.5C 578.994 118.33 589.327 123.33 602 123.5C 609.397 123.254 616.564 121.92 623.5 119.5C 623.762 118.022 623.429 116.689 622.5 115.5C 609.422 120.958 596.422 120.792 583.5 115C 570.281 105.348 565.781 92.5144 570 76.5C 577.807 57.8458 591.64 50.6791 611.5 55C 618.924 57.4323 624.924 61.7657 629.5 68C 628.183 69.6591 626.517 70.8257 624.5 71.5C 613.897 58.8515 601.23 56.3515 586.5 64C 570.87 78.6902 570.537 93.6902 585.5 109C 598.075 115.033 610.575 114.866 623 108.5C 623.5 100.173 623.666 91.84 623.5 83.5C 625.5 83.5 627.5 83.5 629.5 83.5C 630.148 104.233 629.481 124.733 627.5 145C 600.382 154.243 576.215 149.41 555 130.5C 534.619 104.109 533.285 76.7758 551 48.5C 561.935 34.6178 576.102 26.2845 593.5 23.5z" stroke="none" fill="#FF861A" fill-rule="nonzero" fill-opacity="0.87058824" />
	</g>
	<g>
        <path d="M0.5 28.5C 2.5 28.5 4.5 28.5 6.5 28.5C 6.5 67.1667 6.5 105.833 6.5 144.5C 4.5 144.5 2.5 144.5 0.5 144.5C 0.5 105.833 0.5 67.1667 0.5 28.5z" stroke="none" fill="#FF851A" fill-rule="nonzero" fill-opacity="0.827451" />
	</g>
	<g>
        <path d="M10.5 28.5C 12.5 28.5 14.5 28.5 16.5 28.5C 16.5 67.1667 16.5 105.833 16.5 144.5C 14.5 144.5 12.5 144.5 10.5 144.5C 10.5 105.833 10.5 67.1667 10.5 28.5z" stroke="none" fill="#FF841A" fill-rule="nonzero" fill-opacity="0.8235294" />
	</g>
	<g>
        <path d="M20.5 28.5C 22.5 28.5 24.5 28.5 26.5 28.5C 26.5 67.1667 26.5 105.833 26.5 144.5C 24.5 144.5 22.5 144.5 20.5 144.5C 20.5 105.833 20.5 67.1667 20.5 28.5z" stroke="none" fill="#FF841A" fill-rule="nonzero" fill-opacity="0.83137256" />
	</g>
	<g>
        <path d="M30.5 28.5C 49.1667 28.5 67.8333 28.5 86.5 28.5C 86.5 30.5 86.5 32.5 86.5 34.5C 69.8333 34.5 53.1667 34.5 36.5 34.5C 36.5 35.8333 36.5 37.1667 36.5 38.5C 53.1667 38.5 69.8333 38.5 86.5 38.5C 86.5 40.5 86.5 42.5 86.5 44.5C 69.8333 44.5 53.1667 44.5 36.5 44.5C 36.5 45.8333 36.5 47.1667 36.5 48.5C 53.1667 48.5 69.8333 48.5 86.5 48.5C 86.5 50.5 86.5 52.5 86.5 54.5C 69.8333 54.5 53.1667 54.5 36.5 54.5C 36.5 62.5 36.5 70.5 36.5 78.5C 52.5 78.5 68.5 78.5 84.5 78.5C 84.5 80.5 84.5 82.5 84.5 84.5C 68.5 84.5 52.5 84.5 36.5 84.5C 36.5 85.8333 36.5 87.1667 36.5 88.5C 52.5 88.5 68.5 88.5 84.5 88.5C 84.5 90.5 84.5 92.5 84.5 94.5C 68.5 94.5 52.5 94.5 36.5 94.5C 36.5 95.8333 36.5 97.1667 36.5 98.5C 52.5 98.5 68.5 98.5 84.5 98.5C 84.5 100.5 84.5 102.5 84.5 104.5C 68.5 104.5 52.5 104.5 36.5 104.5C 36.5 117.833 36.5 131.167 36.5 144.5C 34.5 144.5 32.5 144.5 30.5 144.5C 30.5 105.833 30.5 67.1667 30.5 28.5z" stroke="none" fill="#FF841A" fill-rule="nonzero" fill-opacity="0.8392157" />
	</g>
	<g>
        <path d="M138.5 28.5C 142.471 27.7577 145.304 29.091 147 32.5C 161.804 69.751 176.304 107.084 190.5 144.5C 188.208 144.756 186.041 144.423 184 143.5C 170.392 108.008 156.392 72.6746 142 37.5C 128.059 73.163 114.225 108.83 100.5 144.5C 98.076 144.808 95.7427 144.474 93.5 143.5C 108.797 105.247 123.797 66.9132 138.5 28.5z" stroke="none" fill="#FF851A" fill-rule="nonzero" fill-opacity="0.8745098" />
	</g>
	<g>
        <path d="M149.5 29.5C 150.449 28.8476 151.615 28.5143 153 28.5C 154.658 28.6752 155.991 29.3418 157 30.5C 171.833 68.1667 186.667 105.833 201.5 143.5C 198.23 145.214 195.73 144.548 194 141.5C 179.39 103.966 164.556 66.6323 149.5 29.5z" stroke="none" fill="#FF861A" fill-rule="nonzero" fill-opacity="0.8745098" />
	</g>
	<g>
        <path d="M160.5 28.5C 162.833 28.5 165.167 28.5 167.5 28.5C 182.203 66.9132 197.203 105.247 212.5 143.5C 210.257 144.474 207.924 144.808 205.5 144.5C 190.507 105.844 175.507 67.1773 160.5 28.5z" stroke="none" fill="#FF861A" fill-rule="nonzero" fill-opacity="0.8666667" />
	</g>
	<g>
        <path d="M171.5 28.5C 173.527 28.3379 175.527 28.5045 177.5 29C 193.029 67.2536 208.362 105.587 223.5 144C 220.621 144.957 218.121 144.457 216 142.5C 200.87 104.58 186.036 66.5797 171.5 28.5z" stroke="none" fill="#FF861A" fill-rule="nonzero" fill-opacity="0.8666667" />
	</g>
	<g>
        <path d="M325.5 28.5C 350.833 28.5 376.167 28.5 401.5 28.5C 401.5 30.5 401.5 32.5 401.5 34.5C 376.167 34.5 350.833 34.5 325.5 34.5C 325.5 32.5 325.5 30.5 325.5 28.5z" stroke="none" fill="#FF841A" fill-rule="nonzero" fill-opacity="0.8352941" />
	</g>
	<g>
        <path d="M411.5 28.5C 413.5 28.5 415.5 28.5 417.5 28.5C 417.333 51.8357 417.5 75.169 418 98.5C 423.948 126.901 441.448 141.901 470.5 143.5C 498.97 141.857 516.47 127.19 523 99.5C 523.5 75.8357 523.667 52.169 523.5 28.5C 525.5 28.5 527.5 28.5 529.5 28.5C 529.667 52.5023 529.5 76.5023 529 100.5C 522.081 131.726 502.581 148.059 470.5 149.5C 438.427 148.062 418.927 131.728 412 100.5C 411.5 76.5023 411.333 52.5023 411.5 28.5z" stroke="none" fill="#FF851A" fill-rule="nonzero" fill-opacity="0.85490197" />
	</g>
	<g>
        <path d="M421.5 28.5C 423.5 28.5 425.5 28.5 427.5 28.5C 427.333 51.8357 427.5 75.169 428 98.5C 431.534 115.701 441.701 126.868 458.5 132C 482.641 136.857 500.141 128.357 511 106.5C 511.92 103.899 512.587 101.232 513 98.5C 513.5 75.169 513.667 51.8357 513.5 28.5C 515.5 28.5 517.5 28.5 519.5 28.5C 519.667 52.169 519.5 75.8357 519 99.5C 512.969 124.953 496.802 138.287 470.5 139.5C 444.198 138.287 428.031 124.953 422 99.5C 421.5 75.8357 421.333 52.169 421.5 28.5z" stroke="none" fill="#FF851A" fill-rule="nonzero" fill-opacity="0.8509804" />
	</g>
	<g>
        <path d="M431.5 28.5C 433.5 28.5 435.5 28.5 437.5 28.5C 437.333 51.5024 437.5 74.5024 438 97.5C 440.621 110.122 448.121 118.289 460.5 122C 478.419 126.118 491.919 120.285 501 104.5C 501.822 102.212 502.489 99.8782 503 97.5C 503.5 74.5024 503.667 51.5024 503.5 28.5C 505.5 28.5 507.5 28.5 509.5 28.5C 509.952 53.5436 509.452 78.5436 508 103.5C 501.437 120.541 488.937 129.208 470.5 129.5C 452.063 129.208 439.563 120.541 433 103.5C 431.548 78.5436 431.048 53.5436 431.5 28.5z" stroke="none" fill="#FF851A" fill-rule="nonzero" fill-opacity="0.84705883" />
	</g>
	<g>
        <path d="M441.5 28.5C 443.5 28.5 445.5 28.5 447.5 28.5C 447.04 52.5521 447.54 76.5521 449 100.5C 457.641 113.538 469.141 116.704 483.5 110C 487.134 107.575 489.968 104.408 492 100.5C 493.46 76.5521 493.96 52.5521 493.5 28.5C 495.5 28.5 497.5 28.5 499.5 28.5C 499.961 52.8853 499.461 77.2187 498 101.5C 492.994 113.601 483.827 119.601 470.5 119.5C 457.596 119.136 448.429 113.136 443 101.5C 441.539 77.2187 441.039 52.8853 441.5 28.5z" stroke="none" fill="#FF851A" fill-rule="nonzero" fill-opacity="0.8666667" />
	</g>
	<g>
        <path d="M746.5 118.5C 736.5 91.3388 726 64.3388 715 37.5C 701.025 73.0965 686.858 108.596 672.5 144C 670.421 144.808 668.421 144.641 666.5 143.5C 681.333 105.833 696.167 68.1667 711 30.5C 713.179 28.3628 715.679 28.0295 718.5 29.5C 733.797 67.7535 748.797 106.087 763.5 144.5C 761.208 144.756 759.041 144.423 757 143.5C 753.962 134.863 750.462 126.529 746.5 118.5z" stroke="none" fill="#FF861A" fill-rule="nonzero" fill-opacity="0.87058824" />
	</g>
	<g>
        <path d="M722.5 28.5C 724.833 28.5 727.167 28.5 729.5 28.5C 744.203 66.9132 759.203 105.247 774.5 143.5C 772.257 144.474 769.924 144.808 767.5 144.5C 752.896 105.688 737.896 67.0212 722.5 28.5z" stroke="none" fill="#FF851A" fill-rule="nonzero" fill-opacity="0.8784314" />
	</g>
	<g>
        <path d="M733.5 28.5C 735.527 28.3379 737.527 28.5045 739.5 29C 754.927 67.1099 770.26 105.277 785.5 143.5C 783.257 144.474 780.924 144.808 778.5 144.5C 763.507 105.844 748.507 67.1773 733.5 28.5z" stroke="none" fill="#FF851A" fill-rule="nonzero" fill-opacity="0.8666667" />
	</g>
	<g>
        <path d="M744.5 28.5C 746.792 28.2436 748.959 28.5769 751 29.5C 766.037 67.7379 781.204 105.905 796.5 144C 792.537 145.236 789.703 144.07 788 140.5C 773.196 103.249 758.696 65.9157 744.5 28.5z" stroke="none" fill="#FF851A" fill-rule="nonzero" fill-opacity="0.87058824" />
	</g>
	<g>
        <path d="M266.5 33.5C 279.717 32.5361 292.384 34.7028 304.5 40C 307.001 41.6733 309.334 43.5067 311.5 45.5C 310.5 47.1667 309.167 48.5 307.5 49.5C 291.129 38.5602 273.795 36.7268 255.5 44C 242.089 55.919 241.089 68.919 252.5 83C 255.789 85.4776 259.456 87.1442 263.5 88C 271.244 88.1028 278.911 88.7695 286.5 90C 294.527 93.7087 298.527 100.042 298.5 109C 297.31 120.524 290.977 127.19 279.5 129C 269.61 130.111 259.943 129.111 250.5 126C 247.497 124.834 244.83 123.167 242.5 121C 244.167 119.833 245.833 118.667 247.5 117.5C 260.167 124.289 273.167 125.122 286.5 120C 294.064 112.471 294.064 104.804 286.5 97C 284.913 96.1376 283.246 95.4709 281.5 95C 275.167 94.6667 268.833 94.3333 262.5 94C 247.185 90.0042 239.185 80.0042 238.5 64C 240.398 46.9377 249.731 36.7711 266.5 33.5z" stroke="none" fill="#FF861A" fill-rule="nonzero" fill-opacity="0.8745098" />
	</g>
	<g>
        <path d="M325.5 38.5C 350.833 38.5 376.167 38.5 401.5 38.5C 401.5 40.5 401.5 42.5 401.5 44.5C 376.167 44.5 350.833 44.5 325.5 44.5C 325.5 42.5 325.5 40.5 325.5 38.5z" stroke="none" fill="#FF841A" fill-rule="nonzero" fill-opacity="0.8235294" />
	</g>
	<g>
        <path d="M266.5 43.5C 277.521 42.6077 288.188 44.1077 298.5 48C 304.633 49.9209 304.967 52.4209 299.5 55.5C 287.308 49.1132 274.641 47.9465 261.5 52C 252.307 60.3558 252.307 68.6891 261.5 77C 269.089 78.2305 276.756 78.8972 284.5 79C 303.435 85.0258 310.935 97.8592 307 117.5C 302.653 130.179 293.819 137.346 280.5 139C 266.469 140.55 253.135 138.217 240.5 132C 234.509 129.583 234.175 126.749 239.5 123.5C 255.871 134.44 273.205 136.273 291.5 129C 304.351 116.93 305.351 104.096 294.5 90.5C 291.386 87.6246 287.719 85.7913 283.5 85C 276.833 84.6667 270.167 84.3333 263.5 84C 253.637 81.1201 248.637 74.4534 248.5 64C 249.784 52.8896 255.784 46.0562 266.5 43.5z" stroke="none" fill="#FF851A" fill-rule="nonzero" fill-opacity="0.8784314" />
	</g>
	<g>
        <path d="M142.5 47.5C 144.447 49.2162 145.781 51.3829 146.5 54C 134.475 83.7371 122.642 113.57 111 143.5C 108.959 144.423 106.792 144.756 104.5 144.5C 116.773 112.016 129.439 79.6823 142.5 47.5z" stroke="none" fill="#FF851A" fill-rule="nonzero" fill-opacity="0.8666667" />
	</g>
	<g>
        <path d="M714.5 47.5C 715.496 47.4142 716.329 47.7476 717 48.5C 717.45 50.519 718.283 52.3523 719.5 54C 707.475 83.7371 695.642 113.57 684 143.5C 681.959 144.423 679.792 144.756 677.5 144.5C 689.637 112.089 701.97 79.7552 714.5 47.5z" stroke="none" fill="#FF861A" fill-rule="nonzero" fill-opacity="0.8745098" />
	</g>
	<g>
        <path d="M325.5 48.5C 350.833 48.5 376.167 48.5 401.5 48.5C 401.5 50.5 401.5 52.5 401.5 54.5C 394.833 54.5 388.167 54.5 381.5 54.5C 381.5 84.5 381.5 114.5 381.5 144.5C 379.5 144.5 377.5 144.5 375.5 144.5C 375.5 114.5 375.5 84.5 375.5 54.5C 374.167 54.5 372.833 54.5 371.5 54.5C 371.5 84.5 371.5 114.5 371.5 144.5C 369.5 144.5 367.5 144.5 365.5 144.5C 365.5 114.5 365.5 84.5 365.5 54.5C 364.167 54.5 362.833 54.5 361.5 54.5C 361.5 84.5 361.5 114.5 361.5 144.5C 359.5 144.5 357.5 144.5 355.5 144.5C 355.5 114.5 355.5 84.5 355.5 54.5C 354.167 54.5 352.833 54.5 351.5 54.5C 351.5 84.5 351.5 114.5 351.5 144.5C 349.5 144.5 347.5 144.5 345.5 144.5C 345.5 114.5 345.5 84.5 345.5 54.5C 338.833 54.5 332.167 54.5 325.5 54.5C 325.5 52.5 325.5 50.5 325.5 48.5z" stroke="none" fill="#FF851A" fill-rule="nonzero" fill-opacity="0.92156863" />
	</g>
	<g>
        <path d="M268.5 53.5C 278.262 52.6025 287.595 54.1025 296.5 58C 293.107 61.999 289.107 62.6657 284.5 60C 279.167 59.3333 273.833 59.3333 268.5 60C 263.965 62.3357 263.632 65.0024 267.5 68C 307.545 67.3662 323.378 86.5329 315 125.5C 308.303 139.507 297.136 147.34 281.5 149C 265.694 150.755 250.694 148.088 236.5 141C 233.091 138.966 230.091 136.466 227.5 133.5C 228.549 131.888 230.049 130.888 232 130.5C 251.805 144.495 272.971 146.995 295.5 138C 312.565 124.998 316.398 108.831 307 89.5C 301.59 81.5379 294.09 76.7046 284.5 75C 277.089 74.8917 269.755 74.225 262.5 73C 261.299 72.0975 260.465 70.9308 260 69.5C 257.426 60.9684 260.259 55.635 268.5 53.5z" stroke="none" fill="#FF851A" fill-rule="nonzero" fill-opacity="0.87058824" />
	</g>
	<g>
        <path d="M720.5 60.5C 722.652 62.369 723.986 64.869 724.5 68C 714.598 93.2064 704.598 118.373 694.5 143.5C 692.235 144.647 689.902 144.814 687.5 144C 698.642 116.217 709.642 88.3832 720.5 60.5z" stroke="none" fill="#FF861A" fill-rule="nonzero" fill-opacity="0.8627451" />
	</g>
	<g>
        <path d="M147.5 60.5C 149.556 62.2401 150.889 64.5735 151.5 67.5C 141.57 92.7884 131.737 118.122 122 143.5C 119.959 144.423 117.792 144.756 115.5 144.5C 125.967 116.434 136.634 88.4338 147.5 60.5z" stroke="none" fill="#FF861A" fill-rule="nonzero" fill-opacity="0.8745098" />
	</g>
	<g>
        <path d="M152.5 74.5C 156.076 76.8232 157.243 80.1566 156 84.5C 148.069 104.127 140.235 123.794 132.5 143.5C 130.235 144.647 127.902 144.814 125.5 144C 134.996 121.011 143.996 97.8446 152.5 74.5z" stroke="none" fill="#FF861A" fill-rule="nonzero" fill-opacity="0.8666667" />
	</g>
	<g>
        <path d="M725.5 74.5C 726.376 74.3691 727.043 74.7025 727.5 75.5C 728.366 77.4317 729.033 79.4317 729.5 81.5C 721.698 102.24 713.698 122.906 705.5 143.5C 703.167 144.833 700.833 144.833 698.5 143.5C 707.79 120.59 716.79 97.5904 725.5 74.5z" stroke="none" fill="#FF861A" fill-rule="nonzero" fill-opacity="0.87058824" />
	</g>
	<g>
        <path d="M633.5 83.5C 635.5 83.5 637.5 83.5 639.5 83.5C 639.5 103.833 639.5 124.167 639.5 144.5C 637.5 144.5 635.5 144.5 633.5 144.5C 633.5 124.167 633.5 103.833 633.5 83.5z" stroke="none" fill="#FF851A" fill-rule="nonzero" fill-opacity="0.8235294" />
	</g>
	<g>
        <path d="M643.5 83.5C 645.5 83.5 647.5 83.5 649.5 83.5C 649.5 103.833 649.5 124.167 649.5 144.5C 647.5 144.5 645.5 144.5 643.5 144.5C 643.5 124.167 643.5 103.833 643.5 83.5z" stroke="none" fill="#FF841B" fill-rule="nonzero" fill-opacity="0.827451" />
	</g>
	<g>
        <path d="M653.5 83.5C 655.5 83.5 657.5 83.5 659.5 83.5C 659.5 103.833 659.5 124.167 659.5 144.5C 657.5 144.5 655.5 144.5 653.5 144.5C 653.5 124.167 653.5 103.833 653.5 83.5z" stroke="none" fill="#FF851B" fill-rule="nonzero" fill-opacity="0.8235294" />
	</g>
	<g>
        <path d="M149.5 104.5C 155.537 104.171 161.537 104.504 167.5 105.5C 168.167 106.833 168.833 108.167 169.5 109.5C 162.167 110.833 154.833 110.833 147.5 109.5C 148.174 107.805 148.841 106.138 149.5 104.5z" stroke="none" fill="#FF851A" fill-rule="nonzero" fill-opacity="0.8" />
	</g>
	<g>
        <path d="M722.5 104.5C 728.537 104.171 734.537 104.504 740.5 105.5C 741.167 106.833 741.833 108.167 742.5 109.5C 735.197 110.497 727.863 110.831 720.5 110.5C 720.604 108.297 721.27 106.297 722.5 104.5z" stroke="none" fill="#FF871A" fill-rule="nonzero" fill-opacity="0.8039216" />
	</g>
	<g>
        <path d="M145.5 114.5C 154.192 114.169 162.859 114.502 171.5 115.5C 172.167 116.833 172.833 118.167 173.5 119.5C 163.5 120.833 153.5 120.833 143.5 119.5C 144.174 117.805 144.841 116.138 145.5 114.5z" stroke="none" fill="#FF841A" fill-rule="nonzero" fill-opacity="0.8235294" />
	</g>
	<g>
        <path d="M746.5 118.5C 741.881 119.828 736.881 120.494 731.5 120.5C 726.5 120.167 721.5 119.833 716.5 119.5C 717.074 117.941 717.74 116.441 718.5 115C 727.186 114.168 735.853 114.335 744.5 115.5C 744.942 116.739 745.609 117.739 746.5 118.5z" stroke="none" fill="#FF851A" fill-rule="nonzero" fill-opacity="0.81960785" />
	</g>
	<g>
        <path d="M141.5 124.5C 152.853 124.168 164.186 124.501 175.5 125.5C 176.167 126.833 176.833 128.167 177.5 129.5C 164.833 130.833 152.167 130.833 139.5 129.5C 140.456 127.925 141.123 126.258 141.5 124.5z" stroke="none" fill="#FF851A" fill-rule="nonzero" fill-opacity="0.81960785" />
	</g>
	<g>
        <path d="M714.5 124.5C 725.853 124.168 737.186 124.501 748.5 125.5C 749.074 127.059 749.74 128.559 750.5 130C 737.82 130.833 725.154 130.666 712.5 129.5C 713.174 127.805 713.841 126.138 714.5 124.5z" stroke="none" fill="#FF841A" fill-rule="nonzero" fill-opacity="0.8235294" />
	</g>
</g>
</svg>