<svg xmlns="http://www.w3.org/2000/svg" width="32" height="28"><g stroke-linecap="round" stroke-linejoin="round" transform="translate(0 -1020.362)"><path fill="#faa41a" stroke="#806349" d="M3.469 1037.64h25.062c-.221-13.565-25.062-13.693-25.062 0z"/><rect width="28.883" height="4.044" x="1.558" y="1037.633" fill="none" stroke="#806349" rx="2.022" ry="2.022"/><path fill="#faa41a" stroke="#806349" d="M3.174 1041.671c-.292 1.659.504 3.635 2.227 3.635h21.528c.955 0 1.728-1.268 1.676-3.65z"/><path fill="none" stroke="#806349" d="M4.116 1040.256s.658-1.25 1.847-1.205c1.19.046 1.058 1.205 2.016 1.205.959 0 .591-1.25 2.037-1.205 1.446.046 1.075 1.205 2.037 1.205.961 0 .54-1.205 1.994-1.205s1.373 1.205 1.995 1.205c.622 0 .793-1.25 2.1-1.205 1.307.046 1.111 1.268 2.1 1.205.988-.062.704-1.205 1.931-1.205s1.03 1.19 1.932 1.205c.902.016.655-.947 1.89-1.205 1.234-.257 1.89 1.205 1.89 1.205"/><path fill="none" stroke="#fff" d="M25.178 1034.474c-1.562-3.166-5.362-4.774-9.165-4.805"/></g></svg>